#N canvas 64 107 470 295 12;
#X floatatom 31 40 5 0 0 0 - - -;
#X obj 31 135 nfader~ 4, f 50;
#N canvas 483 201 144 118 sine 0;
#X obj 24 23 inlet~;
#X obj 24 47 osc~ 110;
#X obj 24 71 outlet~;
#X obj 77 23 inlet;
#X connect 0 0 1 0;
#X connect 1 0 2 0;
#X connect 3 0 1 1;
#X restore 117 111 pd sine;
#N canvas 0 23 250 145 triangle 0;
#X obj 26 48 phasor~ 110;
#X obj 26 72 expr~ 4*(abs($v1-0.5)-0.25);
#X obj 26 24 inlet~;
#X obj 100 24 inlet;
#X obj 26 96 outlet~;
#X connect 0 0 1 0;
#X connect 1 0 4 0;
#X connect 2 0 0 0;
#X connect 3 0 0 1;
#X restore 204 111 pd triangle;
#N canvas 0 23 450 300 sawtooth 0;
#X obj 134 76 phasor~ 110;
#X obj 134 100 expr~ $v1*2 - 1;
#X obj 134 52 inlet~;
#X obj 208 52 inlet;
#X obj 134 124 outlet~;
#X connect 0 0 1 0;
#X connect 1 0 4 0;
#X connect 2 0 0 0;
#X connect 3 0 0 1;
#X restore 291 111 pd sawtooth;
#N canvas 0 23 233 147 square 0;
#X obj 26 50 phasor~ 110;
#X obj 26 74 expr~ 2*(($v1 > 0.5)-0.5);
#X obj 26 26 inlet~;
#X obj 100 26 inlet;
#X obj 26 98 outlet~;
#X connect 0 0 1 0;
#X connect 1 0 4 0;
#X connect 2 0 0 0;
#X connect 3 0 0 1;
#X restore 378 111 pd square;
#X obj 31 63 / 100;
#X msg 31 87 \$1 50;
#X obj 31 111 line;
#X obj 117 87 f 110;
#X obj 204 87 f 110;
#X obj 291 87 f 110;
#X obj 378 87 f 110;
#X obj 378 18 loadbang;
#X obj 32 227 *~;
#X obj 53 159 hsl 128 15 0 0.5 0 0 empty empty empty -2 -8 0 10 -262144
-1 -1 4900 1;
#X msg 50 179 \$1 50;
#X obj 50 203 vline~;
#X obj 32 251 dac~;
#X connect 0 0 6 0;
#X connect 1 0 14 0;
#X connect 2 0 1 1;
#X connect 3 0 1 2;
#X connect 4 0 1 3;
#X connect 5 0 1 4;
#X connect 6 0 7 0;
#X connect 7 0 8 0;
#X connect 8 0 1 0;
#X connect 9 0 2 0;
#X connect 10 0 3 0;
#X connect 11 0 4 0;
#X connect 12 0 5 0;
#X connect 13 0 9 0;
#X connect 13 0 10 0;
#X connect 13 0 11 0;
#X connect 13 0 12 0;
#X connect 14 0 18 0;
#X connect 14 0 18 1;
#X connect 15 0 16 0;
#X connect 16 0 17 0;
#X connect 17 0 14 1;
